<?xml version="1.0" encoding="iso-8859-1"?>
<!-- Generator: Adobe Illustrator 20.1.0, SVG Export Plug-In . SVG Version: 6.00 Build 0)  -->
<svg version="1.1"  xmlns="http://www.w3.org/2000/svg" xmlns:xlink="http://www.w3.org/1999/xlink" x="0px" y="0px"
	 viewBox="0 0 48 48" style="enable-background:new 0 0 48 48;" xml:space="preserve">
<path style="fill:#FDD835;" d="M8.002,41.998c-0.187-8.405,11-10.999,11-10.999h10c0,0,11.009,2.344,11,10.999v2h-32V41.998z"/>
<path style="fill:#4CAF50;" d="M29.002,30.999h-10c0,0-11.187,2.594-11,10.999v2h1l0-2.022c-0.158-7.08,9.04-9.694,10.124-9.977
	h9.763c1.033,0.248,10.121,2.647,10.114,9.999v2h1v-2C40.011,33.343,29.002,30.999,29.002,30.999z"/>
<path style="fill:#4CAF50;" d="M17.142,31.739C17.771,33.321,19.923,36,24,36s6.229-2.679,6.858-4.261l0.066-0.166
	c-1.141-0.405-1.922-0.573-1.922-0.573h-10c0,0-0.778,0.182-1.916,0.6L17.142,31.739z"/>
<path style="fill:#FB8C00;" d="M19,31v-6h10v6c0,0-1.193,3-5,3S19,31,19,31z"/>
<path style="fill:#FB8C00;" d="M35,19c0,1.105-0.895,2-2,2c-1.104,0-2-0.895-2-2s0.896-2,2-2C34.105,17,35,17.895,35,19 M17,19
	c0-1.105-0.895-2-2-2s-2,0.895-2,2s0.895,2,2,2S17,20.105,17,19"/>
<path style="fill:#FFA726;" d="M24,7L24,7c-4.971,0-9,4.029-9,9l0,4.693c0,4.795,3.62,8.98,8.404,9.288
	C28.646,30.318,33,26.168,33,21v-5C33,11.029,28.971,7,24,7z"/>
<path style="fill:#37474F;" d="M27,19c0-0.551,0.448-1,1-1s1,0.449,1,1s-0.448,1-1,1S27,19.551,27,19 M19,19c0,0.551,0.448,1,1,1
	s1-0.449,1-1s-0.448-1-1-1S19,18.449,19,19"/>
<path style="fill:#A1887F;" d="M14,14v3.286c0.919,0,1,0.714,1,0.714l1-3.411c0-1.658,0.659-3.248,1.831-4.421L19,9c0,0,2.847,1,5,1
	s5-1,5-1l1.169,1.169C31.341,11.341,32,12.931,32,14.589L33,18c0,0,0.062-0.742,1-0.742V14c0-5.523-4.477-10-10-10h0
	C18.477,4,14,8.477,14,14z"/>
<path style="fill:none;stroke:#4CAF50;stroke-width:2;stroke-miterlimit:10;" d="M25.309,43H24c-1.105,0-2-0.895-2-2v0
	c0-1.105,0.895-2,2-2h0c1.105,0,2,0.895,2,2v3"/>
<path style="fill:#E65100;" d="M20.509,25c0.566,0.873,1.651,2,3.491,2s2.925-1.127,3.491-2c0,0-1.33-1-3.491-1S20.509,25,20.509,25
	z"/>
<path style="fill:#FFFFFF;" d="M21.389,25.268c0.079,0.258,0.292,0.45,0.559,0.488c0.472,0.068,1.261,0.16,2.052,0.16
	c0.802,0,1.591-0.095,2.053-0.163c0.253-0.037,0.457-0.208,0.544-0.448c0.09-0.245,0.207-0.542,0.293-0.675
	c0,0-1.232-0.63-2.89-0.63s-2.847,0.63-2.847,0.63C21.231,24.777,21.319,25.04,21.389,25.268z"/>
<path style="fill:#FFEBEE;" d="M24,24.717c1.206,0,2.181,0.332,2.625,0.513c0.085-0.228,0.187-0.48,0.265-0.6
	c0,0-1.232-0.63-2.89-0.63s-2.847,0.63-2.847,0.63c0.075,0.141,0.159,0.391,0.227,0.612C21.8,25.063,22.769,24.717,24,24.717z"/>
</svg>
